<svg width="17" height="42" viewBox="0 0 17 42" fill="currentColor" xmlns="http://www.w3.org/2000/svg">
<path d="M15.9102 36.4258C14.9922 36.9727 14.0156 37.5293 12.9805 38.0957C11.9648 38.6621 10.959 39.1797 9.96289 39.6484C8.98633 40.0977 8.06836 40.4688 7.20898 40.7617C6.34961 41.0547 5.62695 41.2012 5.04102 41.2012C4.37695 41.2012 3.80078 40.8887 3.3125 40.2637C2.82422 39.6582 2.58008 38.8281 2.58008 37.7734C2.58008 37.1875 2.63867 36.416 2.75586 35.459C2.89258 34.4824 3.05859 33.418 3.25391 32.2656C3.44922 31.1133 3.66406 29.9219 3.89844 28.6914C4.13281 27.4609 4.34766 26.2891 4.54297 25.1758C4.73828 24.0625 4.89453 23.0566 5.01172 22.1582C5.14844 21.2402 5.2168 20.5469 5.2168 20.0781C5.2168 19.6289 5.1875 19.2773 5.12891 19.0234C5.07031 18.75 4.99219 18.5547 4.89453 18.4375C4.79688 18.3008 4.66992 18.2129 4.51367 18.1738C4.35742 18.1348 4.19141 18.1152 4.01562 18.1152C3.85938 18.1152 3.63477 18.1543 3.3418 18.2324C3.04883 18.291 2.75586 18.3691 2.46289 18.4668C2.11133 18.5645 1.75 18.6816 1.37891 18.8184L0.822266 16.5625C1.64258 16.1914 2.59961 15.7812 3.69336 15.332C4.80664 14.8633 5.90039 14.4238 6.97461 14.0137C8.06836 13.6035 9.06445 13.2617 9.96289 12.9883C10.8613 12.7148 11.5156 12.5781 11.9258 12.5781C12.4727 12.5781 12.9023 12.7637 13.2148 13.1348C13.5469 13.5059 13.7129 14.1406 13.7129 15.0391C13.7129 15.6055 13.6445 16.377 13.5078 17.3535C13.3711 18.3301 13.1953 19.4043 12.9805 20.5762C12.7852 21.7285 12.5703 22.9492 12.3359 24.2383C12.1016 25.5078 11.877 26.7285 11.6621 27.9004C11.4668 29.0527 11.3008 30.1172 11.1641 31.0938C11.0273 32.0703 10.959 32.8418 10.959 33.4082C10.959 34.0137 11.0176 34.4531 11.1348 34.7266C11.2715 35 11.5059 35.1367 11.8379 35.1367C12.1309 35.1367 12.4043 35.1172 12.6582 35.0781C12.9121 35.0391 13.166 34.9805 13.4199 34.9023C13.6934 34.8242 13.9766 34.7266 14.2695 34.6094C14.5625 34.4922 14.9141 34.3457 15.3242 34.1699L15.9102 36.4258ZM16.5547 3.02734C16.5547 3.57422 16.4277 4.15039 16.1738 4.75586C15.9395 5.36133 15.5781 5.91797 15.0898 6.42578C14.6211 6.93359 14.0352 7.35352 13.332 7.68555C12.6289 8.01758 11.8184 8.18359 10.9004 8.18359C10.3145 8.18359 9.80664 8.11523 9.37695 7.97852C8.94727 7.82227 8.5957 7.61719 8.32227 7.36328C8.04883 7.10937 7.84375 6.82617 7.70703 6.51367C7.58984 6.20117 7.53125 5.87891 7.53125 5.54688C7.53125 5.01953 7.64844 4.45313 7.88281 3.84766C8.13672 3.24219 8.50781 2.68555 8.99609 2.17773C9.48438 1.65039 10.0703 1.2207 10.7539 0.888672C11.457 0.537109 12.2676 0.361328 13.1855 0.361328C13.7715 0.361328 14.2793 0.439453 14.709 0.595703C15.1387 0.751953 15.4902 0.957031 15.7637 1.21094C16.0371 1.44531 16.2324 1.72852 16.3496 2.06055C16.4863 2.37305 16.5547 2.69531 16.5547 3.02734Z" fill="currentColor"/>
</svg>
