<svg width="64" height="64" viewBox="0 0 64 64" fill="none" xmlns="http://www.w3.org/2000/svg">
<g opacity="0.3">
<path d="M49.5499 11.4492C41.3786 11.4492 34.9266 18.0744 34.9266 26.2456C34.9266 34.4169 41.6377 41.042 49.8089 41.042C49.8907 41.042 50.014 41.031 50.0957 41.0296C46.8649 43.6023 42.807 45.1526 38.3653 45.1526C36.3218 45.1526 34.6772 46.8096 34.6772 48.8517C34.6772 50.8938 35.992 52.5508 38.0355 52.5508C52.5396 52.5494 63.9999 40.7497 63.9999 26.2456C63.9999 26.2429 63.9999 26.2401 63.9999 26.2359C63.9999 18.0688 57.7184 11.4492 49.5499 11.4492Z" fill="currentColor"/>
<path d="M14.8934 11.4492C6.72211 11.4492 0.259076 18.0744 0.259076 26.2456C0.259076 34.4169 6.96456 41.042 15.1372 41.042C15.219 41.042 15.3395 41.031 15.4212 41.0296C12.1904 43.6023 8.1311 45.1526 3.6894 45.1526C1.64589 45.1526 0 46.8096 0 48.8517C0 50.8938 1.33556 52.5508 3.37907 52.5508C17.8831 52.5494 29.3642 40.7497 29.3642 26.2456C29.3642 26.2429 29.3642 26.2401 29.3642 26.2359C29.3642 18.0688 23.0619 11.4492 14.8934 11.4492Z" fill="currentColor"/>
</g>
</svg>
