<svg width="24" height="24" viewBox="0 0 24 24" fill="none" xmlns="http://www.w3.org/2000/svg">
<path d="M21.7793 12.1502C21.5313 11.0727 20.6499 10.2779 19.5891 10.1596C17.0776 9.87906 14.5343 9.87773 12.0035 9.87906C9.47158 9.87773 6.92884 9.87906 4.41654 10.1596C3.35625 10.2782 2.47541 11.073 2.22767 12.1502C1.8746 13.6846 1.87036 15.3594 1.87036 16.9393C1.87036 18.5191 1.87036 20.1937 2.22344 21.7281C2.47118 22.8053 3.35202 23.6001 4.41284 23.7187C6.92461 23.9995 9.46735 24.0006 11.999 23.9995C14.5309 24.0008 17.0731 23.9995 19.5856 23.7187C20.6459 23.6001 21.5273 22.8053 21.775 21.7281C22.1278 20.1937 22.1297 18.5191 22.1297 16.9393C22.1294 15.3592 22.1321 13.6846 21.7793 12.1502ZM7.64903 13.3394H6.18272V21.1309H4.8207V13.3394H3.38113V12.0632H7.64903V13.3394ZM11.3484 21.1312H10.1232V20.3941C9.63648 20.952 9.17435 21.2241 8.72414 21.2241C8.32951 21.2241 8.05795 21.0643 7.93541 20.722C7.86871 20.5177 7.82742 20.1943 7.82742 19.7173V14.3746H9.05154V19.3492C9.05154 19.6361 9.05154 19.7851 9.06266 19.8253C9.09204 20.0153 9.18494 20.1117 9.34904 20.1117C9.59466 20.1117 9.85139 19.9224 10.123 19.5384V14.3746H11.3481L11.3484 21.1312ZM15.9995 19.1033C15.9995 19.7282 15.9575 20.1784 15.8757 20.4648C15.7121 20.9674 15.3847 21.2241 14.8977 21.2241C14.462 21.2241 14.0417 20.9822 13.6323 20.4767V21.1315H12.4082V12.0632H13.6323V15.0246C14.0277 14.5379 14.4475 14.2917 14.8977 14.2917C15.3847 14.2917 15.7124 14.5482 15.8757 15.054C15.958 15.3258 15.9995 15.7726 15.9995 16.4123V19.1033ZM20.62 17.976H18.1715V19.1737C18.1715 19.7991 18.3761 20.1114 18.7969 20.1114C19.0984 20.1114 19.2738 19.9476 19.3437 19.6204C19.3551 19.554 19.3712 19.2819 19.3712 18.791H20.6203V18.9696C20.6203 19.3642 20.6052 19.6361 20.594 19.7583C20.553 20.0294 20.4567 20.2753 20.3082 20.4918C19.9691 20.9825 19.4668 21.2244 18.8273 21.2244C18.1868 21.2244 17.6993 20.9938 17.3454 20.5325C17.0858 20.1943 16.9524 19.6617 16.9524 18.9437V16.5772C16.9524 15.8549 17.0707 15.3266 17.3309 14.9852C17.6845 14.5228 18.1717 14.2925 18.7972 14.2925C19.4115 14.2925 19.8985 14.5228 20.2415 14.9852C20.498 15.3266 20.6205 15.8549 20.6205 16.5772V17.976H20.62Z" fill="currentColor"/>
<path d="M18.7861 15.3945C18.3769 15.3945 18.1718 15.7071 18.1718 16.3317V16.9569H19.3959V16.3317C19.3957 15.7071 19.1911 15.3945 18.7861 15.3945Z" fill="currentColor"/>
<path d="M14.2424 15.3945C14.0408 15.3945 13.8364 15.4898 13.6318 15.6923V19.8104C13.8362 20.0152 14.0408 20.1121 14.2424 20.1121C14.5955 20.1121 14.775 19.8104 14.775 19.2003V16.3164C14.775 15.7071 14.5955 15.3945 14.2424 15.3945Z" fill="currentColor"/>
<path d="M14.9264 9.25654C15.3777 9.25654 15.8472 8.98233 16.3398 8.41804V9.16284H17.5772V2.33447H16.3398V7.55335C16.0656 7.94083 15.8057 8.13246 15.5582 8.13246C15.3925 8.13246 15.2951 8.03453 15.2681 7.84264C15.253 7.80214 15.253 7.65154 15.253 7.36172V2.33447H14.0197V7.73386C14.0197 8.2161 14.0609 8.54244 14.1292 8.74915C14.2536 9.09508 14.5281 9.25654 14.9264 9.25654Z" fill="currentColor"/>
<path d="M6.31268 5.45179V9.16281H7.68476V5.45179L9.33528 0H7.94784L7.01169 3.59827L6.03768 0H4.59387C4.88316 0.849344 5.1841 1.70292 5.47339 2.55306C5.91355 3.83092 6.18828 4.79434 6.31268 5.45179Z" fill="currentColor"/>
<path d="M11.1742 9.2566C11.7941 9.2566 12.2758 9.02342 12.6175 8.55759C12.8771 8.21589 13.0015 7.67754 13.0015 6.9518V4.56072C13.0015 3.83074 12.8774 3.29716 12.6175 2.95229C12.2758 2.48513 11.7944 2.25195 11.1742 2.25195C10.5575 2.25195 10.0761 2.48513 9.7336 2.95229C9.47077 3.29716 9.34637 3.83074 9.34637 4.56072V6.9518C9.34637 7.67754 9.47077 8.21589 9.7336 8.55759C10.0758 9.02342 10.5575 9.2566 11.1742 9.2566ZM10.5837 4.31272C10.5837 3.68094 10.7754 3.36597 11.1742 3.36597C11.5731 3.36597 11.7642 3.68067 11.7642 4.31272V7.18498C11.7642 7.81676 11.5731 8.13278 11.1742 8.13278C10.7754 8.13278 10.5837 7.81676 10.5837 7.18498V4.31272Z" fill="currentColor"/>
</svg>
